<?xml version="1.0"?>
<svg xmlns="http://www.w3.org/2000/svg" xmlns:xlink="http://www.w3.org/1999/xlink" xmlns:svgjs="http://svgjs.com/svgjs" version="1.1" width="512" height="512" x="0" y="0" viewBox="0 0 512 512" style="enable-background:new 0 0 512 512" xml:space="preserve" class=""><g><g xmlns="http://www.w3.org/2000/svg"><circle cx="256" cy="256" fill="#00a9a4" r="256" data-original="#53b976" style="" class=""/><g><g><g><path d="m286.383 111.45h-67.375c-38.844 0-73.124 19.562-93.508 49.374-12.426 18.17-19.698 40.149-19.698 63.821v62.709c0 62.516 50.68 113.195 113.205 113.195h67.375v-289.099z" fill="#f39e22" data-original="#f39e22" style=""/><g><path d="m105.8 240.6h119.36v30.8h-119.36z" fill="#ea792e" data-original="#ea792e" style=""/><path d="m105.8 240.6h119.36v12.09h-119.36z" fill="#dd5e26" data-original="#dd5e26" style=""/></g><g><path d="m225.16 290.74v30.79h-114.1c-1.92-6.03-3.33-12.28-4.2-18.71-.55-3.96-.89-7.99-1-12.08z" fill="#ea792e" data-original="#ea792e" style=""/><path d="m225.16 290.74v12.08h-118.3c-.55-3.96-.89-7.99-1-12.08z" fill="#dd5e26" data-original="#dd5e26" style=""/></g><g><path d="m254.17 340.87v30.8h-110.69c-6.25-5.59-11.87-11.87-16.74-18.72-2.75-3.85-5.26-7.89-7.51-12.08z" fill="#ea792e" data-original="#ea792e" style=""/><path d="m254.17 340.87v12.08h-127.43c-2.75-3.85-5.26-7.89-7.51-12.08z" fill="#dd5e26" data-original="#dd5e26" style=""/></g><g><path d="m273.51 391.01v9.54h-54.5c-16.21 0-31.61-3.4-45.55-9.54z" fill="#ea792e" data-original="#ea792e" style=""/><path d="m273.51 391.01v9.54h-54.5c-16.21 0-31.61-3.4-45.55-9.54z" fill="#dd5e26" data-original="#dd5e26" style=""/></g><g><path d="m225.16 190.47v30.79h-119.31c.19-6.39.9-12.63 2.11-18.71.26-1.32.54-2.63.86-3.94l2.24-8.14z" fill="#ea792e" data-original="#ea792e" style=""/><path d="m225.16 190.47v12.08h-117.2c.26-1.32.54-2.63.86-3.94l2.24-8.14z" fill="#dd5e26" data-original="#dd5e26" style=""/></g><g><path d="m255.26 140.33v30.8h-136.04c1.91-3.56 4.01-7 6.28-10.31 1.99-2.9 4.11-5.71 6.35-8.41 3.57-4.31 7.46-8.35 11.63-12.08z" fill="#ea792e" data-original="#ea792e" style=""/><path d="m255.26 140.33v12.08h-123.41c3.57-4.31 7.46-8.35 11.63-12.08z" fill="#dd5e26" data-original="#dd5e26" style=""/></g><g><path d="m278.54 116.09v4.9h-105.08c13.93-6.14 29.34-9.54 45.55-9.54h27.37c11.17 0 21.97 1.62 32.16 4.64z" fill="#ea792e" data-original="#ea792e" style=""/></g></g><path d="m406.246 224.645v62.709c0 9.534-1.18 18.789-3.404 27.636-12.329 49.152-56.81 85.559-109.801 85.559h-27.375c-62.525 0-113.205-50.68-113.205-113.195v-62.709c0-23.672 7.272-45.651 19.698-63.821 20.384-29.812 54.664-49.374 93.508-49.374h27.375c62.524 0 113.204 50.68 113.204 113.195z" fill="#f9c744" data-original="#f9c744" style=""/><path d="m406.246 224.645v62.709c0 9.534-1.18 18.789-3.404 27.636-16.71 5.705-34.444 8.771-52.817 8.771-87.802 0-161.042-69.971-177.868-162.937 20.384-29.812 54.664-49.374 93.508-49.374h27.375c62.526 0 113.206 50.68 113.206 113.195z" fill="#fad98f" data-original="#fad98f" style=""/><path d="m324.904 166.35c-6.802 4.294-8.835 13.289-4.541 20.091l25.552 40.478c4.294 6.802 13.289 8.835 20.091 4.541 6.802-4.294 8.835-13.289 4.541-20.091l-25.552-40.478c-4.294-6.802-13.289-8.835-20.091-4.541z" fill="#faefdc" data-original="#faefdc" style=""/><g><path d="m291.843 124.097h-24.98c-35.445 0-66.726 17.851-85.326 45.054-11.339 16.58-17.974 36.636-17.974 58.237v57.222c0 57.046 46.246 103.292 103.3 103.292h24.98c48.355 0 88.944-33.222 100.194-78.073 2.029-8.074 3.106-16.518 3.106-25.218v-57.222c0-57.046-46.245-103.292-103.3-103.292zm98.968 159.444c0 8.375-1.036 16.503-2.99 24.275-10.829 43.173-49.9 75.152-96.446 75.152h-24.045c-54.92 0-99.436-44.515-99.436-99.427v-55.082c0-20.793 6.387-40.099 17.302-56.058 17.905-26.186 48.015-43.369 82.134-43.369h24.046c54.92 0 99.436 44.515 99.436 99.427v55.082z" fill="#dd5e26" data-original="#dd5e26" style=""/><path d="m291.376 129.032h-24.046c-34.119 0-64.229 17.183-82.134 43.369-10.914 15.96-17.302 35.266-17.302 56.058v55.082c0 54.912 44.516 99.427 99.436 99.427h24.046c46.545 0 85.616-31.979 96.446-75.152 1.954-7.772 2.99-15.9 2.99-24.275v-55.082c-.001-54.912-44.516-99.427-99.436-99.427zm89.139 151.965c0 7.601-.941 14.979-2.714 22.033-9.829 39.185-45.291 68.21-87.537 68.21h-21.824c-49.847 0-90.25-40.403-90.25-90.243v-49.994c0-18.872 5.797-36.395 15.703-50.88 16.251-23.767 43.58-39.363 74.547-39.363h21.824c49.847 0 90.25 40.403 90.25 90.243v49.994z" fill="#ea792e" data-original="#ea792e" style=""/></g></g><g><path d="m327.74 265.32-3.26 1.91-36.36 21.23c-5.42 3.17-12.12 3.17-17.54 0l-39.61-23.14c-7.42-4.33-9.9-13.87-5.54-21.26l43.21-73.23 3.48-5.9c3.25-5.5 11.21-5.5 14.46 0l46.69 79.13c4.36 7.39 1.88 16.93-5.53 21.26z" fill="#dd5e26" data-original="#dd5e26" style=""/><path d="m333.94 281.46-5.74 8.19-2.77 3.95-39.2 55.92c-2.44 3.47-6.84 4.41-10.35 2.83-1.31-.59-2.49-1.54-3.4-2.83l-39.2-55.92-8.51-12.14c-1.66-2.37 1.09-5.32 3.57-3.83l42.06 25.27c5.51 3.31 12.4 3.31 17.91 0l42.06-25.27c2.48-1.49 5.23 1.46 3.57 3.83z" fill="#dd5e26" data-original="#dd5e26" style=""/><g fill="#ea792e"><path d="m324.48 267.23-36.36 21.23c-5.42 3.17-12.12 3.17-17.54 0l-39.61-23.14c-7.42-4.33-9.9-13.87-5.54-21.26l43.21-73.23c3.03-.25 6.18 1.12 7.94 4.1l46.69 79.13c2.45 4.15 2.74 8.97 1.21 13.17z" fill="#ea792e" data-original="#ea792e" style=""/><path d="m288.31 315.9c-5.511 3.311-12.399 3.311-17.91 0l-37.12-22.3 39.2 55.92c.91 1.29 2.09 2.24 3.4 2.83l28.763-41.033c1.452-2.072-.956-4.655-3.124-3.353z" fill="#ea792e" data-original="#ea792e" style=""/></g></g></g><g><path d="m245.664 470.669c-.082 0-.163-.002-.246-.006-6.794-.329-13.641-.986-20.35-1.954-2.733-.394-4.629-2.929-4.235-5.662s2.929-4.632 5.662-4.235c6.397.922 12.927 1.549 19.406 1.863 2.758.134 4.886 2.478 4.752 5.236-.128 2.675-2.339 4.758-4.989 4.758zm39.848-1.808c-2.453 0-4.593-1.806-4.945-4.304-.385-2.734 1.52-5.263 4.254-5.648 6.419-.903 12.863-2.126 19.15-3.635 2.689-.643 5.384 1.011 6.029 3.696.644 2.686-1.011 5.384-3.696 6.029-6.597 1.582-13.356 2.865-20.09 3.812-.235.034-.47.05-.702.05zm-98.493-9.536c-.545 0-1.099-.09-1.643-.279-6.414-2.231-12.796-4.8-18.971-7.635-2.509-1.153-3.609-4.121-2.457-6.631 1.153-2.509 4.121-3.608 6.631-2.457 5.885 2.703 11.969 5.151 18.082 7.278 2.608.907 3.987 3.757 3.08 6.365-.718 2.065-2.653 3.359-4.722 3.359zm155.855-7.165c-1.899 0-3.715-1.088-4.554-2.93-1.144-2.513-.034-5.478 2.479-6.622 5.888-2.68 11.722-5.68 17.34-8.916 2.393-1.379 5.45-.555 6.828 1.837 1.378 2.393.556 5.45-1.837 6.828-5.893 3.394-12.012 6.541-18.188 9.352-.671.306-1.376.451-2.068.451zm-208.894-20.322c-1.007 0-2.023-.303-2.905-.934-5.521-3.95-10.92-8.214-16.047-12.673-2.083-1.812-2.304-4.971-.492-7.054 1.813-2.084 4.971-2.303 7.054-.492 4.89 4.253 10.039 8.319 15.304 12.086 2.246 1.607 2.764 4.73 1.157 6.976-.976 1.364-2.512 2.091-4.071 2.091zm259.188-11.925c-1.403 0-2.797-.586-3.786-1.731-1.805-2.089-1.575-5.247.515-7.052 4.901-4.234 9.658-8.753 14.138-13.433 1.909-1.995 5.074-2.063 7.069-.153s2.063 5.075.153 7.069c-4.697 4.906-9.685 9.645-14.824 14.084-.943.816-2.107 1.216-3.265 1.216zm-302.358-29.37c-1.482 0-2.949-.656-3.936-1.912-4.197-5.345-8.185-10.951-11.853-16.663-1.492-2.324-.818-5.417 1.506-6.909s5.417-.817 6.909 1.506c3.498 5.447 7.3 10.793 11.303 15.891 1.705 2.172 1.327 5.315-.845 7.021-.915.717-2.004 1.066-3.084 1.066zm341.579-15.691c-.93 0-1.871-.259-2.71-.802-2.319-1.5-2.983-4.595-1.483-6.914 3.519-5.44 6.815-11.112 9.798-16.857 1.272-2.452 4.291-3.406 6.741-2.134 2.451 1.272 3.406 4.291 2.134 6.741-3.128 6.026-6.586 11.975-10.276 17.68-.958 1.48-2.564 2.286-4.204 2.286zm-371.423-36.062c-1.985 0-3.864-1.191-4.645-3.147-2.519-6.309-4.761-12.814-6.664-19.335-.773-2.651.748-5.427 3.399-6.201 2.653-.771 5.427.748 6.201 3.399 1.814 6.216 3.951 12.416 6.351 18.429 1.024 2.565-.225 5.474-2.79 6.498-.607.241-1.235.357-1.852.357zm396.381-18.211c-.469 0-.946-.066-1.418-.206-2.648-.783-4.161-3.563-3.378-6.212 1.833-6.205 3.387-12.577 4.62-18.937.525-2.71 3.142-4.48 5.86-3.957 2.711.525 4.482 3.149 3.957 5.86-1.293 6.672-2.924 13.356-4.848 19.867-.642 2.175-2.634 3.585-4.793 3.585zm-410.359-39.864c-2.552 0-4.731-1.945-4.973-4.537-.621-6.662-.935-13.451-.935-20.179v-.232c0-2.761 2.239-5 5-5s5 2.239 5 5v.233c0 6.419.3 12.896.892 19.251.256 2.75-1.765 5.186-4.515 5.442-.157.015-.314.022-.469.022zm418.932-19.25c-.005 0-.011 0-.016 0-2.762-.009-4.993-2.254-4.984-5.016v-.449c0-6.495-.307-13.048-.913-19.478-.259-2.75 1.76-5.188 4.509-5.447 2.755-.259 5.188 1.759 5.447 4.509.635 6.74.957 13.609.957 20.416v.48c-.009 2.757-2.246 4.985-5 4.985zm-416.038-40.412c-.313 0-.632-.03-.951-.091-2.711-.522-4.486-3.144-3.964-5.855 1.285-6.671 2.909-13.357 4.825-19.872.78-2.649 3.561-4.166 6.208-3.386 2.649.78 4.165 3.559 3.385 6.208-1.827 6.209-3.375 12.582-4.6 18.941-.459 2.392-2.554 4.055-4.903 4.055zm407.593-19.181c-2.163 0-4.157-1.415-4.796-3.596-1.819-6.21-3.963-12.408-6.372-18.421-1.027-2.563.219-5.474 2.783-6.5 2.562-1.028 5.473.219 6.5 2.783 2.527 6.309 4.776 12.811 6.685 19.328.776 2.65-.743 5.428-3.393 6.204-.468.137-.942.202-1.407.202zm-388.017-37.248c-.774 0-1.56-.18-2.295-.561-2.452-1.27-3.411-4.287-2.142-6.739 3.121-6.028 6.572-11.98 10.257-17.692 1.497-2.319 4.59-2.988 6.912-1.49 2.32 1.497 2.988 4.592 1.49 6.912-3.513 5.445-6.803 11.121-9.779 16.868-.887 1.717-2.634 2.702-4.443 2.702zm363.192-17.085c-1.644 0-3.253-.81-4.209-2.294-3.503-5.443-7.312-10.785-11.32-15.878-1.708-2.17-1.333-5.313.836-7.021 2.17-1.708 5.314-1.333 7.021.836 4.203 5.34 8.197 10.942 11.871 16.65 1.494 2.322.824 5.416-1.499 6.911-.835.539-1.773.796-2.7.796zm-328.457-31.526c-1.242 0-2.485-.459-3.454-1.385-1.997-1.908-2.069-5.073-.161-7.069 4.692-4.911 9.674-9.655 14.808-14.1 2.087-1.808 5.245-1.582 7.053.507 1.808 2.088 1.581 5.246-.507 7.053-4.896 4.24-9.648 8.764-14.124 13.449-.981 1.027-2.298 1.545-3.615 1.545zm289.321-13.623c-1.162 0-2.329-.402-3.275-1.224-4.894-4.247-10.048-8.308-15.317-12.069-2.248-1.604-2.769-4.727-1.165-6.974s4.728-2.77 6.974-1.165c5.526 3.944 10.93 8.202 16.061 12.655 2.086 1.81 2.31 4.968.5 7.053-.988 1.141-2.379 1.724-3.778 1.724zm-242.345-23.297c-1.728 0-3.408-.896-4.334-2.5-1.381-2.392-.562-5.449 1.829-6.831 5.885-3.399 12.001-6.552 18.178-9.373 2.512-1.146 5.478-.041 6.625 2.472s.04 5.478-2.472 6.625c-5.889 2.688-11.719 5.695-17.329 8.935-.789.456-1.649.672-2.497.672zm192.124-9.056c-.697 0-1.404-.146-2.079-.455-5.889-2.696-11.976-5.138-18.09-7.257-2.609-.904-3.991-3.752-3.087-6.362.904-2.609 3.752-3.992 6.361-3.087 6.416 2.223 12.801 4.785 18.979 7.614 2.511 1.149 3.614 4.117 2.464 6.627-.84 1.836-2.653 2.92-4.548 2.92zm-136.661-13.119c-2.257 0-4.305-1.539-4.857-3.83-.647-2.685 1.005-5.385 3.689-6.032 6.596-1.59 13.354-2.88 20.085-3.835 2.724-.388 5.264 1.514 5.653 4.249.388 2.734-1.515 5.265-4.249 5.653-6.418.91-12.86 2.14-19.147 3.655-.392.095-.786.14-1.174.14zm79.362-3.711c-.236 0-.474-.017-.714-.051-6.398-.915-12.928-1.535-19.408-1.842-2.758-.13-4.889-2.472-4.758-5.23s2.466-4.879 5.231-4.758c6.794.322 13.642.972 20.351 1.931 2.733.391 4.633 2.924 4.242 5.658-.357 2.493-2.496 4.292-4.944 4.292z" fill="#00a9a4" data-original="#9acdae" style="" class=""/></g></g></g></svg>
